<svg width="38" height="36" viewBox="0 0 38 36" fill="none" xmlns="http://www.w3.org/2000/svg">
<ellipse cx="19" cy="18" rx="19" ry="18" fill="#D9D8DA"/>
<path d="M23.3378 9.35146C23.5103 9.13578 23.4908 8.80358 23.2944 8.60947C23.098 8.41537 22.799 8.43286 22.6265 8.64854L22.9822 9L23.3378 9.35146ZM22.9822 9L22.6265 8.64854L13.6941 19.821L14.0498 20.1724L14.4054 20.5239L23.3378 9.35146L22.9822 9Z" fill="black"/>
<path d="M22.6232 28.3755C22.8211 28.5681 23.12 28.5483 23.2908 28.3313C23.4616 28.1143 23.4396 27.7823 23.2416 27.5897L22.9324 27.9826L22.6232 28.3755ZM14 19.293L13.6908 19.6859L22.6232 28.3755L22.9324 27.9826L23.2416 27.5897L14.3092 18.9001L14 19.293Z" fill="black"/>
</svg>
