<svg width="20" height="20" viewBox="0 0 20 20" fill="none" xmlns="http://www.w3.org/2000/svg">
<g clip-path="url(#clip0_2_2201)">
<path d="M15.8243 14.1586H17.49C17.9897 14.1586 18.3228 13.8255 18.3228 13.3257V10.8272C18.3228 10.0776 17.7398 9.41134 17.0735 9.24477C15.5744 8.82835 13.3257 8.32863 13.3257 8.32863C13.3257 8.32863 12.243 7.16264 11.4934 6.41307C11.077 6.07993 10.5773 5.83008 9.99429 5.83008H4.16433C3.66462 5.83008 3.24819 6.16322 2.99833 6.57965L1.83234 8.99492C1.72206 9.31658 1.66577 9.65429 1.66577 9.99434V13.3257C1.66577 13.8255 1.99891 14.1586 2.49862 14.1586H4.16433" stroke="#0891B2" stroke-width="1.6657" stroke-linecap="round" stroke-linejoin="round"/>
<path d="M5.83001 15.8241C6.74995 15.8241 7.49571 15.0783 7.49571 14.1584C7.49571 13.2384 6.74995 12.4927 5.83001 12.4927C4.91007 12.4927 4.16431 13.2384 4.16431 14.1584C4.16431 15.0783 4.91007 15.8241 5.83001 15.8241Z" stroke="#0891B2" stroke-width="1.6657" stroke-linecap="round" stroke-linejoin="round"/>
<path d="M7.49561 14.1584H12.4927" stroke="#0891B2" stroke-width="1.6657" stroke-linecap="round" stroke-linejoin="round"/>
<path d="M14.1584 15.8241C15.0783 15.8241 15.8241 15.0783 15.8241 14.1584C15.8241 13.2384 15.0783 12.4927 14.1584 12.4927C13.2384 12.4927 12.4927 13.2384 12.4927 14.1584C12.4927 15.0783 13.2384 15.8241 14.1584 15.8241Z" stroke="#0891B2" stroke-width="1.6657" stroke-linecap="round" stroke-linejoin="round"/>
</g>
<defs>
<clipPath id="clip0_2_2201">
<rect width="19.9884" height="19.9884" fill="white"/>
</clipPath>
</defs>
</svg>
