<svg width="16" height="9" viewBox="0 0 16 9" fill="none" xmlns="http://www.w3.org/2000/svg">
<path d="M12.6875 1.75C12.9281 1.75 13.125 1.94687 13.125 2.1875V6.5625C13.125 6.80312 12.9281 7 12.6875 7H2.1875C1.94687 7 1.75 6.80312 1.75 6.5625V2.1875C1.75 1.94687 1.94687 1.75 2.1875 1.75H12.6875ZM2.1875 0C0.978906 0 0 0.978906 0 2.1875V6.5625C0 7.77109 0.978906 8.75 2.1875 8.75H12.6875C13.8961 8.75 14.875 7.77109 14.875 6.5625V6.125C15.359 6.125 15.75 5.73398 15.75 5.25V3.5C15.75 3.01602 15.359 2.625 14.875 2.625V2.1875C14.875 0.978906 13.8961 0 12.6875 0H2.1875ZM7.875 2.625H2.625V6.125H7.875V2.625Z" fill="#CA8A04"/>
</svg>
