<svg width="24" height="24" viewBox="0 0 24 24" fill="none" xmlns="http://www.w3.org/2000/svg">
<g clip-path="url(#clip0_2_1048)">
<path d="M6.99457 16.9874L3.9968 19.9852M3.9968 19.9852L0.999023 16.9874M3.9968 19.9852V3.99706C3.9968 3.73204 4.10208 3.47788 4.28947 3.29048C4.47687 3.10308 4.73104 2.9978 4.99606 2.9978H8.99309C9.25811 2.9978 9.51227 3.10308 9.69967 3.29048C9.88707 3.47788 9.99235 3.73204 9.99235 3.99706V19.9852M16.9872 6.99484L19.9849 3.99706M19.9849 3.99706L22.9827 6.99484M19.9849 3.99706V19.9852C19.9849 20.2502 19.8797 20.5044 19.6923 20.6918C19.5049 20.8792 19.2507 20.9845 18.9857 20.9845H14.9886C14.7236 20.9845 14.4695 20.8792 14.2821 20.6918C14.0947 20.5044 13.9894 20.2502 13.9894 19.9852V6.99484" stroke="white" stroke-width="1.99852"/>
</g>
<defs>
<clipPath id="clip0_2_1048">
<rect width="23.9822" height="23.9822" fill="white"/>
</clipPath>
</defs>
</svg>
