<svg width="21" height="24" viewBox="0 0 21 24" fill="none" xmlns="http://www.w3.org/2000/svg">
<path d="M3.32737 22.5003C1.90396 22.5003 0.75 21.3162 0.75 19.8541V9.21833C0.75 8.41479 1.10646 7.65354 1.71667 7.15208L8.80596 1.33033C9.25891 0.955246 9.82857 0.75 10.4167 0.75C11.0048 0.75 11.5744 0.955246 12.0274 1.33033L19.1155 7.15208C19.7269 7.65354 20.0833 8.41479 20.0833 9.21833V19.8541C20.0833 21.3162 18.9294 22.5003 17.506 22.5003H3.32737Z" fill="#0891B2" stroke="#0891B2" stroke-width="1.5" stroke-linecap="round" stroke-linejoin="round"/>
<path d="M7.39583 22.5002V15.8544C7.39583 15.2135 7.65044 14.5988 8.10365 14.1456C8.55687 13.6924 9.17156 13.4377 9.81249 13.4377H11.0208C11.6618 13.4377 12.2765 13.6924 12.7297 14.1456C13.1829 14.5988 13.4375 15.2135 13.4375 15.8544V22.5002" stroke="white" stroke-width="1.5" stroke-linecap="round" stroke-linejoin="round"/>
</svg>
