<svg width="23" height="20" viewBox="0 0 23 20" fill="none" xmlns="http://www.w3.org/2000/svg">
<path d="M22.3196 11.0647L11.2911 0L0.191372 11.0635C0.131611 11.1211 0.0839232 11.19 0.0510689 11.2661C0.0182272 11.3423 0.000869108 11.4243 3.1817e-05 11.5072C-0.000805474 11.5902 0.0148904 11.6725 0.0462076 11.7493C0.0775123 11.8262 0.123813 11.896 0.182386 11.9548C0.240972 12.0135 0.310667 12.06 0.38741 12.0915C0.464153 12.123 0.546408 12.139 0.629374 12.1383C0.712341 12.1377 0.794358 12.1206 0.870627 12.088C0.946908 12.0554 1.01593 12.0079 1.07365 11.9483L3.13189 9.8969V19.3164C3.13189 19.4821 3.19772 19.6411 3.3149 19.7583C3.43207 19.8754 3.59101 19.9413 3.75673 19.9413H8.13064C8.29636 19.9413 8.45529 19.8754 8.57246 19.7583C8.68965 19.6411 8.75548 19.4821 8.75548 19.3164V14.3177C8.75548 13.9863 8.8872 13.6683 9.12151 13.434C9.35583 13.1997 9.67375 13.068 10.0052 13.068H12.5045C12.836 13.068 13.1539 13.1997 13.3882 13.434C13.6225 13.6683 13.7542 13.9863 13.7542 14.3177V19.3164C13.7542 19.4821 13.8201 19.6411 13.9372 19.7583C14.0544 19.8754 14.2134 19.9413 14.3791 19.9413H18.753C18.9187 19.9413 19.0776 19.8754 19.1949 19.7583C19.312 19.6411 19.3778 19.4821 19.3778 19.3164V9.88378L21.4348 11.947C21.4924 12.0067 21.5613 12.0545 21.6374 12.0874C21.7136 12.1202 21.7956 12.1375 21.8786 12.1383C21.9616 12.1392 22.0438 12.1235 22.1206 12.0922C22.1975 12.0609 22.2673 12.0146 22.3261 11.956C22.3848 11.8974 22.4313 11.8277 22.4628 11.7509C22.4943 11.6742 22.5103 11.592 22.5097 11.509C22.509 11.426 22.4919 11.344 22.4593 11.2678C22.4267 11.1915 22.3792 11.1225 22.3196 11.0647Z" fill="#9CA3AF"/>
</svg>
