<svg width="48" height="48" viewBox="0 0 48 48" fill="none" xmlns="http://www.w3.org/2000/svg">
<path d="M37.9874 21.9927H9.99672C7.78831 21.9927 5.99805 23.7829 5.99805 25.9913V39.9867C5.99805 42.1951 7.78831 43.9854 9.99672 43.9854H37.9874C40.1958 43.9854 41.9861 42.1951 41.9861 39.9867V25.9913C41.9861 23.7829 40.1958 21.9927 37.9874 21.9927Z" stroke="#0891B2" stroke-width="2.999" stroke-linecap="round" stroke-linejoin="round"/>
<path d="M13.9954 21.9927V13.9953C13.9954 11.3441 15.0486 8.80137 16.9233 6.92663C18.7981 5.05189 21.3407 3.99867 23.992 3.99867C26.6433 3.99867 29.186 5.05189 31.0607 6.92663C32.9355 8.80137 33.9887 11.3441 33.9887 13.9953V21.9927" stroke="#0891B2" stroke-width="2.999" stroke-linecap="round" stroke-linejoin="round"/>
</svg>
