<svg width="20" height="20" viewBox="0 0 20 20" fill="none" xmlns="http://www.w3.org/2000/svg">
<g clip-path="url(#clip0_2_2261)">
<path d="M8.55176 17.49C8.69796 17.7432 8.90823 17.9534 9.16144 18.0996C9.41465 18.2458 9.70188 18.3228 9.99426 18.3228C10.2866 18.3228 10.5739 18.2458 10.8271 18.0996C11.0803 17.9534 11.2906 17.7432 11.4368 17.49" stroke="#0891B2" stroke-width="1.6657" stroke-linecap="round" stroke-linejoin="round"/>
<path d="M2.71687 12.7644C2.60807 12.8836 2.53627 13.0319 2.5102 13.1912C2.48413 13.3505 2.50492 13.514 2.57004 13.6617C2.63516 13.8094 2.7418 13.935 2.87699 14.0232C3.01218 14.1114 3.17009 14.1584 3.33151 14.1586H16.6571C16.8185 14.1586 16.9765 14.1118 17.1118 14.0237C17.247 13.9357 17.3538 13.8102 17.4191 13.6626C17.4844 13.515 17.5054 13.3516 17.4795 13.1923C17.4537 13.0329 17.3821 12.8846 17.2735 12.7652C16.1658 11.6234 14.9914 10.4099 14.9914 6.66288C14.9914 5.33757 14.465 4.06653 13.5278 3.12939C12.5907 2.19225 11.3196 1.66577 9.99433 1.66577C8.66901 1.66577 7.39798 2.19225 6.46084 3.12939C5.5237 4.06653 4.99722 5.33757 4.99722 6.66288C4.99722 10.4099 3.82206 11.6234 2.71687 12.7644Z" stroke="#0891B2" stroke-width="1.6657" stroke-linecap="round" stroke-linejoin="round"/>
</g>
<defs>
<clipPath id="clip0_2_2261">
<rect width="19.9884" height="19.9884" fill="white"/>
</clipPath>
</defs>
</svg>
