<svg width="48" height="48" viewBox="0 0 48 48" fill="none" xmlns="http://www.w3.org/2000/svg">
<path d="M39.9867 25.9914C39.9867 35.988 32.989 40.9864 24.6718 43.8854C24.2362 44.033 23.7631 44.0259 23.3322 43.8654C14.995 40.9864 7.99731 35.988 7.99731 25.9914V11.996C7.99731 11.4658 8.20796 10.9572 8.58291 10.5823C8.95785 10.2073 9.46639 9.9967 9.99665 9.9967C13.9953 9.9967 18.9937 7.5975 22.4725 4.55852C22.8961 4.19663 23.4349 3.9978 23.992 3.9978C24.5491 3.9978 25.0879 4.19663 25.5115 4.55852C29.0103 7.6175 33.9887 9.9967 37.9873 9.9967C38.5176 9.9967 39.0261 10.2073 39.4011 10.5823C39.776 10.9572 39.9867 11.4658 39.9867 11.996V25.9914Z" stroke="#0891B2" stroke-width="2.999" stroke-linecap="round" stroke-linejoin="round"/>
</svg>
