<svg width="20" height="20" viewBox="0 0 20 20" fill="none" xmlns="http://www.w3.org/2000/svg">
<g clip-path="url(#clip0_2_2246)">
<path d="M9.99429 18.3228C7.78543 18.3228 5.66704 17.4453 4.10514 15.8834C2.54324 14.3215 1.66577 12.2032 1.66577 9.99429C1.66577 7.78543 2.54324 5.66704 4.10514 4.10514C5.66704 2.54324 7.78543 1.66577 9.99429 1.66577C12.2032 1.66577 14.3215 2.45549 15.8834 3.8612C17.4453 5.26691 18.3228 7.17347 18.3228 9.16144C18.3228 10.2659 17.8841 11.3251 17.1031 12.106C16.3222 12.887 15.263 13.3257 14.1586 13.3257H12.2846C12.014 13.3257 11.7486 13.4011 11.5184 13.5434C11.2881 13.6857 11.1021 13.8893 10.981 14.1314C10.86 14.3735 10.8087 14.6445 10.833 14.9141C10.8573 15.1837 10.9562 15.4411 11.1186 15.6577L11.3685 15.9908C11.5309 16.2074 11.6298 16.4649 11.6541 16.7344C11.6784 17.004 11.6272 17.275 11.5061 17.5171C11.3851 17.7592 11.199 17.9628 10.9688 18.1051C10.7385 18.2474 10.4732 18.3228 10.2025 18.3228H9.99429Z" stroke="#0891B2" stroke-width="1.6657" stroke-linecap="round" stroke-linejoin="round"/>
<path d="M11.2436 5.82992C11.4736 5.82992 11.66 5.64348 11.66 5.4135C11.66 5.18351 11.4736 4.99707 11.2436 4.99707C11.0136 4.99707 10.8271 5.18351 10.8271 5.4135C10.8271 5.64348 11.0136 5.82992 11.2436 5.82992Z" fill="#0891B2" stroke="#0891B2" stroke-width="1.6657" stroke-linecap="round" stroke-linejoin="round"/>
<path d="M14.5749 9.16147C14.8049 9.16147 14.9913 8.97503 14.9913 8.74504C14.9913 8.51505 14.8049 8.32861 14.5749 8.32861C14.3449 8.32861 14.1584 8.51505 14.1584 8.74504C14.1584 8.97503 14.3449 9.16147 14.5749 9.16147Z" fill="#0891B2" stroke="#0891B2" stroke-width="1.6657" stroke-linecap="round" stroke-linejoin="round"/>
<path d="M5.4135 10.827C5.64348 10.827 5.82992 10.6406 5.82992 10.4106C5.82992 10.1806 5.64348 9.99414 5.4135 9.99414C5.18351 9.99414 4.99707 10.1806 4.99707 10.4106C4.99707 10.6406 5.18351 10.827 5.4135 10.827Z" fill="#0891B2" stroke="#0891B2" stroke-width="1.6657" stroke-linecap="round" stroke-linejoin="round"/>
<path d="M7.07927 6.66293C7.30925 6.66293 7.49569 6.47649 7.49569 6.2465C7.49569 6.01652 7.30925 5.83008 7.07927 5.83008C6.84928 5.83008 6.66284 6.01652 6.66284 6.2465C6.66284 6.47649 6.84928 6.66293 7.07927 6.66293Z" fill="#0891B2" stroke="#0891B2" stroke-width="1.6657" stroke-linecap="round" stroke-linejoin="round"/>
</g>
<defs>
<clipPath id="clip0_2_2246">
<rect width="19.9884" height="19.9884" fill="white"/>
</clipPath>
</defs>
</svg>
