<svg width="20" height="20" viewBox="0 0 20 20" fill="none" xmlns="http://www.w3.org/2000/svg">
<path d="M2.49854 9.9942C2.49854 11.4767 2.93815 12.9259 3.76178 14.1586C4.58542 15.3912 5.75608 16.352 7.12574 16.9193C8.49539 17.4866 10.0025 17.6351 11.4565 17.3458C12.9106 17.0566 14.2462 16.3427 15.2944 15.2944C16.3427 14.2462 17.0566 12.9106 17.3458 11.4565C17.6351 10.0025 17.4866 8.49539 16.9193 7.12574C16.352 5.75608 15.3912 4.58542 14.1586 3.76178C12.9259 2.93815 11.4767 2.49854 9.9942 2.49854C7.89871 2.50642 5.88738 3.32408 4.38078 4.78055L2.49854 6.6628" stroke="#9333EA" stroke-width="1.6657" stroke-linecap="round" stroke-linejoin="round"/>
<path d="M2.49854 2.49854V6.6628H6.6628" stroke="#9333EA" stroke-width="1.6657" stroke-linecap="round" stroke-linejoin="round"/>
<path d="M9.99426 5.83008V9.99434L13.3257 11.66" stroke="#9333EA" stroke-width="1.6657" stroke-linecap="round" stroke-linejoin="round"/>
</svg>
