<svg width="20" height="20" viewBox="0 0 20 20" fill="none" xmlns="http://www.w3.org/2000/svg">
<path d="M18.0979 14.9912L11.4351 3.33124C11.2898 3.07489 11.0791 2.86167 10.8246 2.71332C10.57 2.56498 10.2806 2.48682 9.98594 2.48682C9.69128 2.48682 9.4019 2.56498 9.14732 2.71332C8.89273 2.86167 8.68205 3.07489 8.53677 3.33124L1.87396 14.9912C1.72711 15.2455 1.65011 15.5341 1.65076 15.8278C1.65141 16.1214 1.72969 16.4097 1.87766 16.6634C2.02563 16.9171 2.23804 17.1271 2.49335 17.2722C2.74865 17.4173 3.03779 17.4924 3.33145 17.4897H16.6571C16.9493 17.4894 17.2364 17.4122 17.4893 17.2659C17.7423 17.1196 17.9523 16.9093 18.0983 16.6561C18.2443 16.403 18.3212 16.1158 18.3211 15.8236C18.321 15.5313 18.244 15.2443 18.0979 14.9912Z" stroke="#3B82F6" stroke-width="1.6657" stroke-linecap="round" stroke-linejoin="round"/>
<path d="M9.99426 7.49561V10.827" stroke="#3B82F6" stroke-width="1.6657" stroke-linecap="round" stroke-linejoin="round"/>
<path d="M9.99426 14.1587H10.0026" stroke="#3B82F6" stroke-width="1.6657" stroke-linecap="round" stroke-linejoin="round"/>
</svg>
